<mxfile host="app.diagrams.net" agent="Mozilla/5.0 (Windows NT 10.0; Win64; x64) AppleWebKit/537.36 (KHTML, like Gecko) Chrome/128.0.0.0 Safari/537.36" version="24.7.12">
  <diagram name="1 oldal" id="fymoVdFejw-TvopipEO1">
    <mxGraphModel dx="3587" dy="2244" grid="1" gridSize="10" guides="1" tooltips="1" connect="1" arrows="1" fold="1" page="0" pageScale="1" pageWidth="827" pageHeight="1169" math="0" shadow="0">
      <root>
        <mxCell id="0" />
        <mxCell id="1" parent="0" />
        <mxCell id="OvydBieI1MA-6imjhszz-1" value="start" style="ellipse;whiteSpace=wrap;html=1;" vertex="1" parent="1">
          <mxGeometry x="95" y="-131" width="120" height="80" as="geometry" />
        </mxCell>
        <mxCell id="OvydBieI1MA-6imjhszz-10" value="" style="edgeStyle=none;curved=1;rounded=0;orthogonalLoop=1;jettySize=auto;html=1;fontSize=12;startSize=8;endSize=8;" edge="1" parent="1" source="OvydBieI1MA-6imjhszz-2" target="OvydBieI1MA-6imjhszz-9">
          <mxGeometry relative="1" as="geometry" />
        </mxCell>
        <mxCell id="OvydBieI1MA-6imjhszz-2" value="&lt;b&gt;Be: t[], n&lt;/b&gt;" style="shape=parallelogram;perimeter=parallelogramPerimeter;whiteSpace=wrap;html=1;fixedSize=1;" vertex="1" parent="1">
          <mxGeometry x="95" width="120" height="60" as="geometry" />
        </mxCell>
        <mxCell id="OvydBieI1MA-6imjhszz-5" value="" style="endArrow=classic;html=1;rounded=0;fontSize=12;startSize=8;endSize=8;curved=1;exitX=0.5;exitY=1;exitDx=0;exitDy=0;" edge="1" parent="1" source="OvydBieI1MA-6imjhszz-1" target="OvydBieI1MA-6imjhszz-2">
          <mxGeometry width="50" height="50" relative="1" as="geometry">
            <mxPoint x="180" y="230" as="sourcePoint" />
            <mxPoint x="230" y="180" as="targetPoint" />
          </mxGeometry>
        </mxCell>
        <mxCell id="OvydBieI1MA-6imjhszz-15" value="" style="edgeStyle=none;curved=1;rounded=0;orthogonalLoop=1;jettySize=auto;html=1;fontSize=12;startSize=8;endSize=8;exitX=0;exitY=0.5;exitDx=0;exitDy=0;" edge="1" parent="1" source="OvydBieI1MA-6imjhszz-8" target="OvydBieI1MA-6imjhszz-14">
          <mxGeometry relative="1" as="geometry" />
        </mxCell>
        <mxCell id="OvydBieI1MA-6imjhszz-20" value="" style="edgeStyle=none;curved=1;rounded=0;orthogonalLoop=1;jettySize=auto;html=1;fontSize=12;startSize=8;endSize=8;" edge="1" parent="1" source="OvydBieI1MA-6imjhszz-8" target="OvydBieI1MA-6imjhszz-19">
          <mxGeometry relative="1" as="geometry" />
        </mxCell>
        <mxCell id="OvydBieI1MA-6imjhszz-8" value="Ha i &amp;lt; n" style="rhombus;whiteSpace=wrap;html=1;" vertex="1" parent="1">
          <mxGeometry x="95" y="200" width="118.75" height="100" as="geometry" />
        </mxCell>
        <mxCell id="OvydBieI1MA-6imjhszz-11" value="" style="edgeStyle=none;curved=1;rounded=0;orthogonalLoop=1;jettySize=auto;html=1;fontSize=12;startSize=8;endSize=8;" edge="1" parent="1" source="OvydBieI1MA-6imjhszz-9" target="OvydBieI1MA-6imjhszz-8">
          <mxGeometry relative="1" as="geometry" />
        </mxCell>
        <mxCell id="OvydBieI1MA-6imjhszz-9" value="i = 0" style="whiteSpace=wrap;html=1;" vertex="1" parent="1">
          <mxGeometry x="95" y="100" width="120" height="60" as="geometry" />
        </mxCell>
        <mxCell id="OvydBieI1MA-6imjhszz-17" value="" style="edgeStyle=none;curved=1;rounded=0;orthogonalLoop=1;jettySize=auto;html=1;fontSize=12;startSize=8;endSize=8;" edge="1" parent="1" source="OvydBieI1MA-6imjhszz-14" target="OvydBieI1MA-6imjhszz-16">
          <mxGeometry relative="1" as="geometry" />
        </mxCell>
        <mxCell id="OvydBieI1MA-6imjhszz-14" value="ki: t[]" style="shape=parallelogram;perimeter=parallelogramPerimeter;whiteSpace=wrap;html=1;fixedSize=1;" vertex="1" parent="1">
          <mxGeometry x="-70" y="220" width="120" height="60" as="geometry" />
        </mxCell>
        <mxCell id="OvydBieI1MA-6imjhszz-16" value="stop" style="ellipse;whiteSpace=wrap;html=1;" vertex="1" parent="1">
          <mxGeometry x="-200" y="210" width="105" height="80" as="geometry" />
        </mxCell>
        <mxCell id="OvydBieI1MA-6imjhszz-18" value="I" style="text;html=1;align=center;verticalAlign=middle;whiteSpace=wrap;rounded=0;fontSize=16;" vertex="1" parent="1">
          <mxGeometry x="70" y="210" width="60" height="30" as="geometry" />
        </mxCell>
        <mxCell id="OvydBieI1MA-6imjhszz-22" value="" style="edgeStyle=none;curved=1;rounded=0;orthogonalLoop=1;jettySize=auto;html=1;fontSize=12;startSize=8;endSize=8;" edge="1" parent="1" source="OvydBieI1MA-6imjhszz-19" target="OvydBieI1MA-6imjhszz-21">
          <mxGeometry relative="1" as="geometry" />
        </mxCell>
        <mxCell id="OvydBieI1MA-6imjhszz-19" value="j = 0" style="whiteSpace=wrap;html=1;" vertex="1" parent="1">
          <mxGeometry x="280" y="220" width="120" height="60" as="geometry" />
        </mxCell>
        <mxCell id="OvydBieI1MA-6imjhszz-30" value="" style="edgeStyle=none;curved=1;rounded=0;orthogonalLoop=1;jettySize=auto;html=1;fontSize=12;startSize=8;endSize=8;" edge="1" parent="1" source="OvydBieI1MA-6imjhszz-21" target="OvydBieI1MA-6imjhszz-29">
          <mxGeometry relative="1" as="geometry" />
        </mxCell>
        <mxCell id="OvydBieI1MA-6imjhszz-21" value="Ha&lt;br&gt;0 &amp;lt; j &amp;lt; n - i - 1" style="rhombus;whiteSpace=wrap;html=1;" vertex="1" parent="1">
          <mxGeometry x="460" y="205" width="100" height="95" as="geometry" />
        </mxCell>
        <mxCell id="OvydBieI1MA-6imjhszz-24" value="" style="endArrow=none;html=1;rounded=0;fontSize=12;startSize=8;endSize=8;curved=1;entryX=0.5;entryY=1;entryDx=0;entryDy=0;" edge="1" parent="1" target="OvydBieI1MA-6imjhszz-21">
          <mxGeometry width="50" height="50" relative="1" as="geometry">
            <mxPoint x="510" y="360" as="sourcePoint" />
            <mxPoint x="520" y="260" as="targetPoint" />
          </mxGeometry>
        </mxCell>
        <mxCell id="OvydBieI1MA-6imjhszz-25" value="" style="endArrow=none;html=1;rounded=0;fontSize=12;startSize=8;endSize=8;curved=1;" edge="1" parent="1">
          <mxGeometry width="50" height="50" relative="1" as="geometry">
            <mxPoint x="160" y="360" as="sourcePoint" />
            <mxPoint x="510" y="360" as="targetPoint" />
          </mxGeometry>
        </mxCell>
        <mxCell id="OvydBieI1MA-6imjhszz-26" value="" style="endArrow=classic;html=1;rounded=0;fontSize=12;startSize=8;endSize=8;curved=1;entryX=0.5;entryY=1;entryDx=0;entryDy=0;" edge="1" parent="1" target="OvydBieI1MA-6imjhszz-8">
          <mxGeometry width="50" height="50" relative="1" as="geometry">
            <mxPoint x="160" y="360" as="sourcePoint" />
            <mxPoint x="520" y="260" as="targetPoint" />
          </mxGeometry>
        </mxCell>
        <mxCell id="OvydBieI1MA-6imjhszz-28" value="I" style="text;html=1;align=center;verticalAlign=middle;whiteSpace=wrap;rounded=0;fontSize=16;" vertex="1" parent="1">
          <mxGeometry x="450" y="280" width="60" height="30" as="geometry" />
        </mxCell>
        <mxCell id="OvydBieI1MA-6imjhszz-32" value="" style="edgeStyle=none;curved=1;rounded=0;orthogonalLoop=1;jettySize=auto;html=1;fontSize=12;startSize=8;endSize=8;" edge="1" parent="1" source="OvydBieI1MA-6imjhszz-29" target="OvydBieI1MA-6imjhszz-31">
          <mxGeometry relative="1" as="geometry" />
        </mxCell>
        <mxCell id="OvydBieI1MA-6imjhszz-29" value="Ha&lt;br&gt;t[j] &amp;gt; t[j + 1]" style="rhombus;whiteSpace=wrap;html=1;" vertex="1" parent="1">
          <mxGeometry x="640" y="205" width="90" height="90" as="geometry" />
        </mxCell>
        <mxCell id="OvydBieI1MA-6imjhszz-34" value="" style="edgeStyle=none;curved=1;rounded=0;orthogonalLoop=1;jettySize=auto;html=1;fontSize=12;startSize=8;endSize=8;" edge="1" parent="1" source="OvydBieI1MA-6imjhszz-31" target="OvydBieI1MA-6imjhszz-33">
          <mxGeometry relative="1" as="geometry" />
        </mxCell>
        <mxCell id="OvydBieI1MA-6imjhszz-31" value="temp = t[j]" style="whiteSpace=wrap;html=1;" vertex="1" parent="1">
          <mxGeometry x="625" y="100" width="120" height="60" as="geometry" />
        </mxCell>
        <mxCell id="OvydBieI1MA-6imjhszz-36" value="" style="edgeStyle=none;curved=1;rounded=0;orthogonalLoop=1;jettySize=auto;html=1;fontSize=12;startSize=8;endSize=8;" edge="1" parent="1" source="OvydBieI1MA-6imjhszz-33" target="OvydBieI1MA-6imjhszz-35">
          <mxGeometry relative="1" as="geometry" />
        </mxCell>
        <mxCell id="OvydBieI1MA-6imjhszz-33" value="t[j] = t[j + 1]" style="whiteSpace=wrap;html=1;" vertex="1" parent="1">
          <mxGeometry x="625" width="120" height="60" as="geometry" />
        </mxCell>
        <mxCell id="OvydBieI1MA-6imjhszz-35" value="t[j + 1] = temp" style="whiteSpace=wrap;html=1;" vertex="1" parent="1">
          <mxGeometry x="625" y="-121" width="120" height="60" as="geometry" />
        </mxCell>
        <mxCell id="OvydBieI1MA-6imjhszz-38" value="" style="endArrow=classic;html=1;rounded=0;fontSize=12;startSize=8;endSize=8;curved=1;entryX=0.5;entryY=0;entryDx=0;entryDy=0;" edge="1" parent="1" target="OvydBieI1MA-6imjhszz-21">
          <mxGeometry width="50" height="50" relative="1" as="geometry">
            <mxPoint x="510" y="-160" as="sourcePoint" />
            <mxPoint x="520" y="260" as="targetPoint" />
          </mxGeometry>
        </mxCell>
        <mxCell id="OvydBieI1MA-6imjhszz-39" value="" style="endArrow=none;html=1;rounded=0;fontSize=12;startSize=8;endSize=8;curved=1;entryX=1;entryY=0.5;entryDx=0;entryDy=0;" edge="1" parent="1" target="OvydBieI1MA-6imjhszz-29">
          <mxGeometry width="50" height="50" relative="1" as="geometry">
            <mxPoint x="820" y="250" as="sourcePoint" />
            <mxPoint x="560" y="150" as="targetPoint" />
          </mxGeometry>
        </mxCell>
        <mxCell id="OvydBieI1MA-6imjhszz-40" value="" style="endArrow=none;html=1;rounded=0;fontSize=12;startSize=8;endSize=8;curved=1;" edge="1" parent="1">
          <mxGeometry width="50" height="50" relative="1" as="geometry">
            <mxPoint x="820" y="-160" as="sourcePoint" />
            <mxPoint x="820" y="250" as="targetPoint" />
          </mxGeometry>
        </mxCell>
        <mxCell id="OvydBieI1MA-6imjhszz-41" value="" style="endArrow=none;html=1;rounded=0;fontSize=12;startSize=8;endSize=8;curved=1;" edge="1" parent="1">
          <mxGeometry width="50" height="50" relative="1" as="geometry">
            <mxPoint x="510" y="-160" as="sourcePoint" />
            <mxPoint x="820" y="-160" as="targetPoint" />
          </mxGeometry>
        </mxCell>
        <mxCell id="OvydBieI1MA-6imjhszz-42" value="" style="endArrow=classic;html=1;rounded=0;fontSize=12;startSize=8;endSize=8;curved=1;exitX=0.451;exitY=-0.023;exitDx=0;exitDy=0;exitPerimeter=0;" edge="1" parent="1" source="OvydBieI1MA-6imjhszz-35">
          <mxGeometry width="50" height="50" relative="1" as="geometry">
            <mxPoint x="685" y="-121" as="sourcePoint" />
            <mxPoint x="680" y="-160" as="targetPoint" />
          </mxGeometry>
        </mxCell>
        <mxCell id="OvydBieI1MA-6imjhszz-43" value="H" style="text;html=1;align=center;verticalAlign=middle;whiteSpace=wrap;rounded=0;fontSize=16;" vertex="1" parent="1">
          <mxGeometry x="530" y="210" width="60" height="30" as="geometry" />
        </mxCell>
        <mxCell id="OvydBieI1MA-6imjhszz-44" value="I" style="text;html=1;align=center;verticalAlign=middle;whiteSpace=wrap;rounded=0;fontSize=16;" vertex="1" parent="1">
          <mxGeometry x="620" y="205" width="60" height="30" as="geometry" />
        </mxCell>
        <mxCell id="OvydBieI1MA-6imjhszz-45" value="H" style="text;html=1;align=center;verticalAlign=middle;whiteSpace=wrap;rounded=0;fontSize=16;" vertex="1" parent="1">
          <mxGeometry x="700" y="205" width="60" height="30" as="geometry" />
        </mxCell>
        <mxCell id="OvydBieI1MA-6imjhszz-46" value="H" style="text;html=1;align=center;verticalAlign=middle;whiteSpace=wrap;rounded=0;fontSize=16;" vertex="1" parent="1">
          <mxGeometry x="180" y="210" width="60" height="30" as="geometry" />
        </mxCell>
      </root>
    </mxGraphModel>
  </diagram>
</mxfile>
